<?xml version="1.0" standalone="no"?>
<!DOCTYPE svg PUBLIC "-//W3C//DTD SVG 20010904//EN"
 "http://www.w3.org/TR/2001/REC-SVG-20010904/DTD/svg10.dtd">
<svg version="1.0" xmlns="http://www.w3.org/2000/svg"
 width="771.000000pt" height="771.000000pt" viewBox="0 0 771.000000 771.000000"
 preserveAspectRatio="xMidYMid meet">

<g transform="translate(0.000000,771.000000) scale(0.100000,-0.100000)"
fill="#000000" stroke="none">
<path d="M6328 7703 c-15 -2 -36 -15 -47 -29 -17 -22 -23 -24 -43 -13 -13 7
-30 15 -38 19 -15 7 -41 -11 -133 -93 -38 -35 -46 -38 -84 -33 -23 3 -45 1
-48 -4 -4 -6 -14 -7 -23 -2 -30 14 -99 6 -128 -15 -16 -11 -39 -24 -51 -27
-13 -4 -23 -14 -23 -21 0 -23 -20 -28 -40 -10 -10 9 -25 15 -32 13 -7 -3 -42
8 -77 24 -35 16 -66 26 -69 23 -3 -3 -15 1 -27 9 -40 26 -105 29 -168 7 -32
-11 -62 -20 -65 -19 -8 1 -40 -10 -64 -23 -29 -15 -38 -10 -38 21 0 20 -7 33
-22 41 -20 11 -21 10 -15 -35 4 -25 3 -46 -2 -46 -5 0 -16 -3 -25 -6 -11 -4
-22 6 -37 31 -15 26 -25 33 -32 26 -6 -6 -21 -11 -33 -11 -12 0 -24 -6 -27
-12 -6 -17 -47 19 -47 41 0 12 -2 13 -9 3 -10 -17 -55 -7 -94 21 -16 11 -41
21 -55 22 -39 5 -72 16 -72 25 0 16 -94 25 -220 21 -49 -1 -57 -4 -75 -30
l-19 -29 -27 19 c-28 20 -75 26 -64 9 4 -6 -8 -10 -29 -10 -19 0 -38 5 -41 10
-9 15 -34 12 -51 -5 -19 -19 -53 -19 -60 -1 -7 18 -42 17 -68 0 -16 -11 -24
-10 -47 6 -30 22 -55 18 -64 -11 -9 -26 -50 -25 -69 2 l-15 22 -27 -32 c-20
-25 -33 -32 -51 -28 -15 3 -27 -1 -30 -9 -3 -8 -11 -14 -18 -14 -7 0 -15 -7
-19 -15 -3 -8 -12 -15 -20 -15 -8 0 -27 -12 -41 -26 -21 -21 -33 -25 -56 -20
-16 3 -29 2 -29 -2 0 -7 -57 -32 -73 -32 -4 0 -7 7 -7 15 0 9 -9 15 -25 15
-16 0 -25 6 -25 15 0 23 -27 18 -33 -6 -5 -18 -10 -20 -39 -14 -18 4 -37 11
-42 16 -11 10 -89 12 -99 3 -3 -3 -26 -7 -52 -9 -26 -2 -54 -10 -65 -20 -14
-13 -28 -16 -54 -11 -22 4 -48 1 -71 -8 -19 -8 -42 -13 -49 -10 -8 3 -17 1
-21 -5 -3 -6 -13 -11 -22 -11 -8 0 -28 -9 -43 -20 -25 -18 -35 -19 -73 -11
-24 6 -52 13 -62 17 -13 5 -16 4 -11 -4 4 -7 1 -12 -8 -12 -8 0 -19 -7 -24
-16 -8 -14 -16 -15 -66 -4 -50 10 -61 9 -99 -8 -54 -26 -100 -39 -161 -46 -52
-6 -76 4 -76 34 0 10 -12 26 -27 36 -16 9 -32 23 -38 30 -22 29 -139 19 -203
-18 -25 -14 -47 -18 -78 -15 -24 3 -46 2 -48 -2 -3 -4 -56 -7 -118 -6 l-113 0
-3 28 c-3 28 -17 36 -25 15 -2 -8 -17 1 -38 23 -48 51 -72 62 -104 47 -20 -9
-34 -9 -58 0 -25 9 -53 8 -123 -2 -116 -18 -268 -13 -534 15 -226 25 -305 22
-468 -17 -34 -8 -97 -17 -139 -20 -42 -3 -83 -10 -90 -16 -11 -8 -13 -648 -13
-3495 l0 -3484 23 7 c12 3 27 10 32 14 14 12 128 51 133 46 2 -2 -7 -7 -20
-11 -59 -19 -168 -79 -159 -88 6 -6 45 -12 88 -15 47 -3 88 -11 103 -21 24
-16 112 -23 260 -21 37 1 78 -4 93 -9 30 -11 121 2 145 22 18 14 24 4 24 -37
0 -28 4 -36 18 -36 12 0 22 -12 29 -33 19 -57 59 -86 127 -93 32 -4 69 -6 81
-5 13 0 23 -4 23 -10 0 -7 10 -9 26 -5 15 4 32 2 41 -5 12 -10 16 -10 23 2 8
11 12 11 24 -6 11 -16 16 -17 29 -7 13 11 17 10 26 -5 9 -16 13 -16 32 -4 19
11 23 11 31 -3 7 -13 13 -14 29 -6 23 13 39 5 39 -18 1 -16 2 -16 14 1 16 21
36 22 36 2 0 -8 7 -15 15 -15 8 0 15 5 15 10 0 6 7 10 15 10 8 0 15 -5 15 -11
0 -7 9 -9 21 -6 12 3 30 0 40 -6 16 -10 22 -9 29 3 9 13 12 12 25 -4 15 -20
15 -20 29 0 14 18 15 18 22 1 5 -13 13 -17 30 -13 12 3 26 1 29 -5 4 -5 17 -9
28 -8 12 1 29 -1 37 -4 8 -4 78 -19 155 -34 139 -28 143 -28 603 -31 318 -2
462 1 462 8 0 13 -40 29 -56 23 -7 -3 -10 5 -7 20 3 14 0 28 -6 31 -6 4 -11
16 -11 26 0 10 -9 22 -20 25 -12 4 -20 15 -20 29 0 13 -6 29 -14 35 -8 7 -17
24 -21 39 -8 32 -33 62 -51 62 -7 0 -16 -19 -20 -45 -3 -25 -10 -45 -14 -45
-5 0 -6 9 -3 20 3 11 0 26 -6 34 -6 7 -9 20 -6 28 4 9 -1 22 -9 31 -9 9 -16
24 -16 35 0 33 -23 68 -43 64 -18 -4 -19 -1 -22 67 -1 25 -7 47 -13 49 -7 2
-12 13 -12 24 0 18 -2 19 -16 7 -14 -11 -16 -10 -13 6 4 34 -11 73 -29 71 -9
0 -21 9 -27 22 -5 12 -13 22 -17 22 -5 0 -8 5 -8 11 0 6 -13 21 -28 34 -54 45
-114 132 -107 155 3 11 13 20 21 20 20 0 17 -20 -3 -21 -15 0 -15 -2 2 -9 27
-11 48 -37 40 -50 -3 -5 -3 -15 1 -21 4 -8 9 -7 15 2 7 11 9 10 9 -3 0 -10 13
-30 30 -44 16 -15 32 -35 35 -45 3 -9 12 -20 20 -23 15 -5 4 26 -44 124 -11
24 -21 58 -21 76 0 18 -5 36 -10 39 -6 4 -8 10 -5 15 3 5 -3 13 -12 19 -16 9
-16 11 7 19 23 9 20 10 -25 16 -79 11 -96 16 -90 26 8 13 50 13 92 1 34 -10
58 4 28 15 -8 4 -14 11 -13 18 1 6 -5 27 -14 46 -8 20 -18 61 -22 92 -6 45
-11 56 -22 51 -13 -5 -14 3 -8 48 4 30 10 59 14 64 20 25 61 212 71 320 7 66
18 132 25 147 19 37 18 69 -4 75 -10 2 -24 19 -31 36 -8 18 -19 37 -26 42 -17
15 -86 123 -110 175 -129 270 -135 283 -168 375 -41 113 -117 309 -127 327 -6
10 -10 25 -10 34 0 9 -12 49 -26 88 -14 39 -34 100 -44 136 -10 36 -30 103
-44 150 -25 85 -31 134 -20 164 11 29 24 17 55 -50 17 -36 37 -68 45 -71 8 -3
14 -12 14 -20 0 -8 20 -57 45 -109 25 -51 45 -98 45 -103 0 -18 41 -60 55 -55
21 9 40 -36 40 -96 0 -42 4 -55 15 -55 9 0 17 13 20 30 4 23 10 29 25 27 11
-2 24 -8 29 -13 6 -5 19 -9 31 -9 12 0 25 -4 31 -9 5 -5 50 -24 99 -42 85 -31
97 -33 225 -32 102 0 155 5 215 20 44 12 105 23 136 27 75 8 165 44 245 98 87
58 206 228 238 337 9 30 25 70 36 89 13 22 20 48 18 74 -2 45 20 69 82 87 19
5 53 16 76 25 79 29 286 29 382 0 35 -10 28 22 -8 35 -23 7 -30 16 -30 35 0
31 2 32 57 5 43 -21 50 -34 45 -92 -1 -9 7 -34 18 -55 11 -20 20 -42 20 -49 0
-13 37 -100 68 -161 29 -57 108 -147 176 -201 75 -60 189 -120 243 -128 21 -3
58 -12 83 -20 107 -35 434 -20 527 24 47 22 28 28 -50 14 -124 -20 -397 -36
-397 -23 0 10 18 15 95 28 73 11 178 46 230 75 68 38 195 157 233 216 33 53
52 109 77 228 9 44 18 85 20 91 2 6 40 13 90 16 69 5 91 10 108 26 30 28 51
97 37 122 -6 12 -7 26 -1 37 40 79 49 119 29 125 -9 3 -9 16 1 54 24 91 83
259 97 273 14 16 12 4 -38 -182 -22 -82 -21 -98 5 -72 9 8 18 11 21 7 9 -15
11 -365 3 -464 -9 -96 -9 -96 15 -101 23 -4 23 -4 1 -6 -18 -1 -23 -7 -22 -28
1 -17 3 -21 6 -10 2 9 11 17 19 17 17 0 19 -16 2 -24 -10 -3 -8 -9 5 -19 16
-14 16 -15 1 -21 -10 -4 -20 -2 -24 4 -8 12 -25 -60 -40 -170 -45 -313 -106
-606 -141 -672 -5 -9 -29 -74 -53 -143 -25 -69 -54 -142 -66 -162 -15 -25 -19
-44 -15 -64 6 -28 25 -50 25 -30 0 23 47 10 77 -22 38 -40 75 -112 123 -242
21 -55 74 -197 118 -316 44 -119 90 -235 101 -257 12 -23 21 -48 21 -57 0 -20
38 -57 50 -50 21 13 9 -26 -25 -82 -19 -32 -35 -61 -35 -66 0 -19 -74 -115
-96 -125 -13 -7 -24 -18 -24 -26 0 -8 -6 -19 -12 -23 -43 -27 -118 -154 -118
-198 0 -16 -9 -44 -19 -61 -39 -64 -121 -224 -121 -235 0 -25 -112 -239 -156
-299 l-44 -61 422 4 c329 3 443 8 512 20 81 15 216 52 291 80 17 6 35 12 40
14 6 1 33 7 60 13 28 6 69 13 92 17 23 3 51 14 62 24 11 10 26 16 34 13 20 -7
64 48 71 88 17 92 42 188 48 188 5 0 8 8 8 19 0 10 15 34 33 53 28 31 37 34
72 31 62 -7 93 10 115 61 19 44 19 45 72 48 l53 3 1 40 c0 26 -8 51 -23 75
-18 25 -21 36 -11 39 7 2 25 12 40 22 22 16 26 27 26 67 1 45 -3 51 -57 107
-86 88 -112 110 -156 134 -22 11 -53 31 -69 45 -24 20 -26 27 -17 44 6 11 19
23 28 26 10 3 23 18 29 33 25 66 36 100 44 136 4 21 13 44 19 50 6 6 11 39 11
74 0 36 4 63 10 63 6 0 20 11 32 25 12 14 25 25 30 25 10 0 35 25 74 75 35 45
42 81 46 229 2 101 27 204 48 198 6 -1 13 5 16 13 4 8 17 15 31 15 18 0 24 4
20 15 -4 8 -1 18 6 22 12 8 17 9 52 12 14 1 16 4 8 9 -9 6 -1 18 27 42 24 21
36 38 31 44 -5 6 -14 28 -19 49 -9 31 -8 39 4 44 8 3 14 14 14 25 0 13 5 18
14 15 36 -14 42 133 9 201 -14 27 -22 32 -52 33 -46 0 -18 13 54 24 28 4 56
12 63 17 9 8 12 444 12 2119 0 1860 -2 2109 -15 2123 -8 8 -15 18 -15 23 0 14
-58 63 -75 63 -14 0 -16 9 -12 54 5 59 -1 66 -48 66 -13 0 -27 5 -30 10 -4 6
-15 8 -26 5 -13 -4 -21 -1 -26 12 -4 10 -17 32 -30 49 -13 17 -23 38 -23 46 0
39 -33 105 -63 126 -17 12 -26 22 -18 22 11 0 10 5 -2 23 -8 13 -20 50 -26 82
-13 68 -36 97 -90 114 -37 10 -815 14 -883 4z m-1763 -63 c3 -5 1 -10 -4 -10
-6 0 -11 5 -11 10 0 6 2 10 4 10 3 0 8 -4 11 -10z m-3226 -484 c8 -9 8 -16 2
-20 -5 -4 -9 -14 -9 -24 2 -20 -40 -89 -71 -116 -11 -11 -21 -23 -21 -27 0 -5
-11 -25 -25 -45 -14 -20 -25 -48 -25 -61 0 -13 -6 -36 -14 -51 -7 -15 -16 -45
-19 -67 -8 -62 -43 -132 -94 -185 -18 -19 -33 -42 -33 -50 -1 -28 -36 -121
-45 -122 -6 0 -9 15 -7 33 3 37 38 172 52 204 5 11 16 43 26 70 10 28 21 52
24 55 3 3 12 21 20 40 8 19 18 38 23 41 15 10 -2 79 -18 79 -8 0 -15 -5 -15
-11 0 -5 -4 -7 -10 -4 -6 4 0 23 15 48 13 23 32 57 41 75 9 19 23 36 31 39 7
3 13 11 13 17 0 19 57 69 82 73 13 2 27 8 32 13 14 14 32 12 45 -4z m149 -124
c42 42 -28 -93 -74 -142 -21 -22 -55 -73 -77 -113 -21 -39 -50 -88 -65 -107
-15 -19 -35 -51 -44 -70 -142 -294 -170 -350 -180 -344 -17 11 -1 87 28 140
58 104 114 217 114 228 0 7 14 39 30 72 17 32 29 67 26 77 -9 35 110 210 167
246 21 13 36 17 47 11 11 -6 21 -5 28 2z m4763 -172 c5 0 9 -5 9 -11 0 -5 11
-34 24 -62 30 -63 63 -175 71 -239 4 -28 16 -59 29 -75 28 -34 72 -118 80
-155 5 -23 3 -28 -13 -28 -10 0 -24 7 -31 15 -7 8 -20 15 -29 15 -20 0 -22
-57 -2 -69 8 -5 11 -16 6 -30 -4 -12 -2 -21 4 -21 6 0 11 -5 11 -11 0 -5 -4
-8 -9 -5 -5 4 -7 -3 -4 -14 3 -11 9 -23 14 -26 5 -3 9 -16 9 -28 0 -13 7 -40
15 -59 17 -42 18 -47 7 -47 -10 0 -42 65 -42 87 0 17 -77 177 -109 228 -11 17
-20 40 -20 51 -1 12 -16 50 -35 85 -18 35 -43 82 -54 104 -12 22 -31 63 -44
91 -15 34 -28 50 -36 46 -10 -3 -13 2 -10 18 4 29 35 35 43 9 4 -10 11 -19 16
-19 12 0 39 -25 39 -36 0 -4 11 -17 24 -29 46 -42 55 -10 29 105 -3 14 -7 41
-9 60 -2 19 -6 51 -9 70 -5 34 -5 34 6 8 6 -16 15 -28 20 -28z m-4671 -99 c0
-5 -7 -12 -16 -15 -14 -5 -15 -4 -4 9 14 17 20 19 20 6z m4415 -19 c12 -8 55
-69 55 -76 0 -3 15 -29 34 -58 54 -85 116 -205 109 -212 -24 -24 -44 1 -119
147 -108 209 -115 226 -79 199z m412 -84 c-2 -13 -4 -5 -4 17 -1 22 1 32 4 23
2 -10 2 -28 0 -40z m-5022 14 c-5 -4 -11 -23 -12 -42 -2 -19 -7 -36 -13 -38
-5 -2 -10 -10 -10 -17 0 -8 -5 -17 -11 -21 -9 -5 -10 3 -5 29 9 46 34 97 49
97 8 0 8 -3 2 -8z m4992 -14 c-3 -8 -6 -5 -6 6 -1 11 2 17 5 13 3 -3 4 -12 1
-19z m62 -83 c0 -5 -4 -3 -9 5 -5 8 -9 22 -9 30 0 16 17 -16 18 -35z m-5018
-31 c-38 -43 -40 -37 -4 17 15 23 29 36 31 30 2 -6 -10 -27 -27 -47z m159 32
c0 -8 -15 -25 -32 -38 -18 -14 -66 -80 -106 -147 -90 -151 -128 -194 -115
-131 4 23 2 30 -11 30 -9 0 -16 -4 -16 -10 0 -13 -27 -13 -35 -1 -7 12 11 53
54 121 19 30 40 69 48 85 l14 30 -7 -34 -6 -35 25 30 c31 36 45 26 24 -18 -9
-18 -14 -34 -12 -36 7 -8 25 9 25 24 0 8 4 14 8 14 5 0 14 11 20 24 29 64 122
134 122 92z m30 -46 c0 -13 -7 -20 -19 -20 -41 0 -29 28 17 39 1 1 2 -8 2 -19z
m-36 -28 c2 -4 -4 -19 -15 -32 -19 -26 -23 -21 -13 18 6 22 19 29 28 14z
m4445 -171 c65 -90 100 -181 104 -265 1 -44 8 -70 24 -92 12 -17 30 -53 39
-80 9 -27 29 -67 44 -89 15 -22 31 -51 35 -65 4 -14 15 -30 24 -37 9 -6 13
-14 9 -18 -11 -11 -76 68 -94 115 -9 25 -34 63 -55 85 -22 23 -39 46 -39 53 0
7 -3 12 -8 12 -4 0 -12 9 -17 19 -6 11 -28 40 -49 66 -31 36 -37 48 -26 55 12
7 11 15 -1 52 -7 23 -13 50 -11 58 4 22 -24 96 -48 130 -11 15 -20 33 -20 40
0 6 -9 30 -20 52 -11 23 -20 44 -20 46 0 15 84 -74 129 -137z m-219 49 c18
-28 30 -53 27 -57 -10 -9 -64 54 -69 82 -8 39 7 30 42 -25z m-243 -112 c-3 -8
-6 -5 -6 6 -1 11 2 17 5 13 3 -3 4 -12 1 -19z m23 -34 c0 -8 -4 -12 -10 -9 -5
3 -10 10 -10 16 0 5 5 9 10 9 6 0 10 -7 10 -16z m400 -25 c0 -6 -4 -7 -10 -4
-5 3 -10 11 -10 16 0 6 5 7 10 4 6 -3 10 -11 10 -16z m-4754 -51 c-4 -18 -9
-46 -11 -62 -3 -16 -11 -38 -18 -50 -8 -12 -18 -37 -22 -56 -14 -66 -43 -120
-60 -114 -11 5 -14 2 -9 -12 5 -15 4 -16 -4 -5 -13 18 -5 103 14 156 35 96 79
175 98 175 16 0 17 -5 12 -32z m5052 -8 c23 -30 28 -55 14 -64 -11 -6 -25 4
-45 34 -38 54 -8 83 31 30z m-651 -10 c6 -16 8 -30 4 -30 -3 0 -12 14 -18 30
-6 17 -8 30 -4 30 3 0 12 -13 18 -30z m33 -78 c0 -7 -4 -10 -10 -7 -5 3 -10
16 -10 28 0 18 2 19 10 7 5 -8 10 -21 10 -28z m315 -150 c69 -98 102 -158 113
-205 22 -86 8 -134 -18 -64 -30 80 -48 118 -98 205 -64 111 -68 122 -51 122 8
0 32 -26 54 -58z m-4252 -59 c-13 -8 -23 -22 -23 -29 0 -8 -7 -14 -15 -14 -8
0 -19 -9 -25 -21 -12 -21 -45 -23 -45 -1 0 14 94 81 115 81 10 0 8 -5 -7 -16z
m3701 -16 c57 -96 81 -167 57 -167 -12 0 -71 127 -71 154 0 12 -5 27 -12 34
-7 7 -8 12 -2 12 5 0 18 -15 28 -33z m979 -227 c28 -74 36 -144 15 -138 -7 3
-24 24 -37 47 -13 23 -34 54 -47 68 -18 19 -21 29 -14 39 8 8 8 14 0 19 -17
11 -11 25 11 25 16 0 20 -5 16 -19 -3 -12 1 -22 10 -25 8 -3 11 -1 8 4 -6 10
3 55 10 48 1 -2 14 -32 28 -68z m-169 -67 c24 -48 76 -230 76 -261 -1 -10 -12
15 -25 55 -13 39 -37 102 -53 140 -39 89 -46 113 -33 113 6 0 21 -21 35 -47z
m-146 -60 c27 -30 45 -62 51 -92 5 -25 8 -47 6 -50 -5 -5 -54 52 -55 63 0 5
-13 31 -30 58 -51 82 -35 94 28 21z m254 -28 c3 -13 1 -22 -3 -19 -9 5 -13 44
-5 44 2 0 6 -11 8 -25z m-937 -40 c15 -24 25 -52 23 -62 -2 -12 -13 0 -31 36
-26 53 -32 71 -22 71 2 0 16 -20 30 -45z m-2478 -113 c25 -21 66 -118 82 -192
7 -30 24 -78 38 -107 24 -48 25 -57 15 -105 -6 -29 -14 -61 -17 -70 -6 -15 -2
-18 24 -18 23 0 31 -5 31 -17 1 -53 78 113 82 175 1 17 6 32 10 32 15 0 26
-44 42 -161 16 -118 10 -244 -16 -332 -11 -37 -5 -59 11 -41 15 14 61 159 61
191 0 33 32 79 49 69 13 -9 15 -106 2 -156 -5 -19 -11 -62 -14 -95 l-6 -60 26
30 c13 17 35 53 48 80 17 35 24 43 24 28 1 -17 5 -21 19 -16 21 8 72 64 72 81
0 21 18 13 23 -10 3 -13 4 -3 3 22 -1 43 0 45 25 42 17 -2 29 3 33 13 12 32
26 3 26 -53 0 -41 -7 -70 -24 -102 -13 -25 -27 -60 -31 -77 -5 -28 -4 -32 9
-27 11 4 16 0 17 -12 1 -11 2 -23 4 -29 1 -5 3 -14 4 -20 1 -5 6 -3 11 5 6 10
10 11 10 3 0 -24 38 -14 44 12 4 14 11 25 16 25 6 0 10 6 10 14 0 7 7 19 15
26 17 14 20 0 6 -28 -5 -9 -19 -38 -31 -64 -13 -27 -27 -48 -32 -48 -18 0 -23
6 -20 23 2 10 -3 17 -12 17 -9 0 -16 -4 -16 -10 0 -5 -7 -10 -15 -10 -9 0 -15
-9 -15 -25 0 -22 3 -24 29 -19 22 5 32 1 45 -17 13 -20 19 -22 35 -12 14 9 21
9 31 0 9 -9 11 -7 8 9 -3 22 20 74 34 74 12 0 10 -12 -8 -31 -16 -18 -11 -44
7 -34 15 10 70 134 76 171 3 19 9 34 14 34 5 0 20 -18 35 -39 14 -22 37 -42
51 -46 33 -8 36 -4 23 30 -39 103 -82 370 -79 495 1 42 2 43 9 15 5 -16 14
-64 21 -105 7 -41 18 -91 25 -110 l13 -35 0 47 c1 53 -25 266 -39 316 -15 58
4 33 51 -66 48 -99 57 -142 61 -269 0 -35 3 -63 6 -63 2 0 13 9 23 21 18 21
18 20 28 -19 18 -65 15 -195 -5 -247 -9 -25 -14 -48 -11 -51 11 -11 32 3 47
32 8 16 25 42 38 58 13 17 28 40 33 53 8 21 31 34 28 16 -1 -5 -1 -23 0 -40 1
-40 21 -44 21 -5 0 34 14 59 25 43 8 -14 -22 -146 -40 -176 -7 -11 -15 -31
-19 -45 -10 -42 -42 -73 -63 -62 -25 14 -58 -15 -83 -72 -18 -39 -19 -50 -8
-89 8 -30 16 -43 25 -40 7 3 13 0 13 -6 0 -6 7 -11 15 -11 19 0 20 -16 1 -23
-8 -3 -17 -1 -19 6 -3 7 -3 -5 0 -26 5 -30 1 -43 -17 -62 -12 -13 -20 -28 -16
-33 3 -5 -1 -18 -9 -28 -8 -10 -15 -26 -15 -35 0 -9 -7 -20 -17 -23 -15 -6
-15 -8 2 -20 15 -11 16 -16 5 -35 -9 -18 -18 -22 -38 -17 -77 17 -220 18 -294
2 -94 -20 -106 -20 -90 -4 8 8 6 17 -8 36 -11 14 -20 33 -20 42 0 10 -18 45
-40 78 -22 33 -40 65 -40 71 0 6 -4 11 -10 11 -5 0 -10 7 -10 16 0 16 -34 66
-41 59 -2 -2 -3 22 -1 54 3 43 0 61 -12 70 -13 11 -17 11 -22 -3 -3 -9 -3 -23
0 -32 3 -8 2 -12 -4 -9 -6 3 -10 14 -11 23 -1 35 -35 76 -70 85 -18 5 -41 15
-50 23 -8 8 -23 14 -31 14 -26 0 -48 11 -42 21 3 5 -1 9 -8 9 -8 0 -31 9 -52
20 -28 14 -44 17 -57 10 -26 -15 -65 -12 -79 5 -9 10 -32 15 -74 15 -34 0 -66
4 -72 9 -17 15 -130 32 -155 23 -32 -12 -48 -5 -59 24 -8 19 -4 33 20 68 17
24 30 48 30 53 0 5 19 33 41 63 23 30 60 93 82 140 36 74 41 92 40 150 -2 65
13 147 28 165 5 5 9 19 9 31 0 12 6 37 14 55 11 29 25 130 26 192 0 21 2 21
27 -1z m-1361 -20 c-8 -16 -22 -34 -30 -41 -14 -11 -16 -11 -16 3 0 25 19 58
30 51 5 -3 11 -1 15 5 14 22 15 8 1 -18z m-156 -15 c0 -18 -86 -61 -106 -53
-16 6 -16 8 3 21 11 7 32 17 46 20 15 4 30 11 33 16 8 13 24 11 24 -4z m-150
-102 c0 -8 -4 -15 -10 -15 -5 0 -10 7 -10 15 0 8 5 15 10 15 6 0 10 -7 10 -15z
m30 -5 c0 -5 -4 -10 -10 -10 -5 0 -10 5 -10 10 0 6 5 10 10 10 6 0 10 -4 10
-10z m1386 -192 c-8 -59 -66 -213 -102 -270 -13 -20 -33 -42 -45 -49 -23 -12
-20 -3 10 33 18 21 81 171 112 267 13 39 25 71 27 71 3 0 1 -24 -2 -52z m891
-280 c-3 -7 -5 -2 -5 12 0 14 2 19 5 13 2 -7 2 -19 0 -25z m550 -80 c5 -68
-13 -45 -20 26 -4 34 -2 45 5 38 6 -6 13 -35 15 -64z m-347 -243 c0 -8 -4 -15
-10 -15 -5 0 -7 7 -4 15 4 8 8 15 10 15 2 0 4 -7 4 -15z m456 -72 c-10 -10
-19 5 -10 18 6 11 8 11 12 0 2 -7 1 -15 -2 -18z m1435 -168 c-8 -100 -13 -120
-55 -220 -26 -60 -50 -118 -53 -127 -4 -13 -20 -17 -76 -20 -62 -3 -74 -1 -90
17 -17 20 -18 19 -11 -20 4 -22 10 -44 14 -50 12 -16 23 -145 12 -145 -10 0
-41 136 -52 230 -6 53 -15 77 -50 128 -23 35 -39 66 -36 69 8 8 -44 73 -58 73
-7 0 -29 9 -51 20 -22 11 -45 20 -52 20 -14 0 -28 19 -20 27 6 6 63 -11 117
-34 19 -8 60 -41 90 -73 62 -66 100 -85 100 -50 0 14 5 20 18 18 24 -4 28 43
8 93 -20 49 -20 53 0 45 10 -4 18 0 21 13 3 11 16 22 29 25 14 4 33 15 44 26
12 12 20 15 20 8 1 -7 7 -2 15 12 8 14 14 19 15 13 0 -21 17 -14 24 10 5 17 8
19 15 8 6 -9 11 -10 15 -3 4 6 13 9 21 5 9 -3 15 1 15 8 1 11 3 10 10 -1 5 -9
5 -63 1 -125z m-641 86 c0 -26 -32 -33 -116 -26 -47 4 -83 9 -80 13 6 5 105
17 169 21 15 0 27 -3 27 -8z m-306 -100 c8 -12 -19 -21 -62 -21 -35 1 -36 2
-18 15 22 17 72 20 80 6z m-1936 -63 c-5 -15 -88 -24 -88 -10 0 16 13 22 53
22 26 0 37 -4 35 -12z m1942 -67 c0 -25 -3 -28 -26 -23 -47 9 -40 51 9 52 12
0 17 -8 17 -29z m-1912 -88 c-2 -10 -10 -18 -18 -18 -8 0 -16 8 -18 18 -2 12
3 17 18 17 15 0 20 -5 18 -17z m1702 -6 c0 -34 44 -92 85 -111 50 -24 145 -40
187 -32 48 9 136 79 145 117 5 16 13 28 18 27 11 -3 10 -8 -1 -48 -7 -24 -6
-24 20 5 14 17 26 36 26 44 0 8 3 11 6 8 8 -8 -14 -66 -34 -89 -8 -10 -26 -18
-39 -18 -14 0 -23 -6 -23 -15 0 -9 -7 -18 -15 -21 -8 -4 -15 -10 -15 -16 0
-16 -29 -40 -40 -33 -5 3 -10 -1 -10 -9 0 -19 1 -19 35 -6 51 20 79 19 103 0
17 -14 22 -25 17 -40 -9 -28 29 -107 55 -115 43 -14 140 88 140 147 0 13 7 33
15 45 8 11 15 44 16 72 2 45 5 51 23 51 44 0 107 -138 122 -266 11 -93 -38
-217 -132 -333 -114 -139 -280 -211 -489 -210 -168 0 -264 38 -386 151 -76 71
-159 222 -159 289 0 26 33 88 46 89 7 0 14 9 17 20 3 12 14 20 25 20 26 0 70
23 86 46 12 16 29 18 142 16 l129 -1 -39 19 c-21 11 -44 24 -51 30 -6 5 -42
11 -79 12 -53 1 -69 5 -77 20 -11 20 -2 68 13 68 13 0 35 27 48 57 5 12 19 23
32 26 13 2 26 5 31 6 4 0 7 -9 7 -22z m-2116 -22 c-29 -22 -42 -17 -15 6 13
11 26 17 29 14 3 -3 -3 -12 -14 -20z m1916 4 c0 -6 -21 -43 -46 -81 -25 -38
-45 -70 -43 -71 14 -9 79 -27 97 -27 12 0 22 -4 22 -8 0 -12 -47 -32 -75 -32
-14 0 -25 -4 -25 -10 0 -5 -7 -10 -15 -10 -7 0 -18 -7 -23 -16 -6 -10 -14 -14
-22 -9 -26 16 18 145 78 228 33 45 52 59 52 36z m-1740 -63 c0 -8 -4 -18 -10
-21 -5 -3 -10 3 -10 14 0 12 5 21 10 21 6 0 10 -6 10 -14z m472 -5 c-10 -6 -5
-15 19 -35 22 -19 35 -24 42 -17 18 18 24 13 30 -25 7 -40 0 -64 -17 -64 -6 0
-37 -13 -69 -30 -37 -19 -81 -31 -125 -36 -37 -3 -70 -8 -74 -11 -11 -6 -178
17 -211 29 -26 10 -27 12 -12 28 14 15 22 16 48 8 18 -5 54 -14 80 -19 96 -20
226 45 254 125 14 43 33 70 42 61 3 -3 0 -10 -7 -14z m2048 -10 c0 -18 -37
-54 -49 -47 -8 5 -5 14 11 32 24 25 38 30 38 15z m-2940 -94 c-20 -51 -30 -92
-30 -130 0 -66 -24 -100 -67 -95 -24 3 -28 8 -31 41 -4 41 -22 52 -22 12 0
-20 -5 -25 -25 -25 -29 0 -45 30 -45 84 0 46 18 61 42 34 10 -12 18 -27 18
-35 0 -7 5 -13 10 -13 6 0 10 9 10 20 0 25 25 26 39 3 11 -21 10 -22 39 38 12
26 20 54 16 62 -3 9 3 25 13 36 10 12 27 31 37 43 31 34 29 8 -4 -75z m1140
44 c0 -11 -3 -11 -15 -1 -8 7 -15 22 -15 33 0 20 0 20 15 1 8 -10 15 -25 15
-33z m-1006 2 c-12 -45 -10 -169 4 -185 12 -15 23 -168 11 -168 -3 0 -6 -6 -7
-12 -1 -7 -4 -26 -7 -43 l-6 -30 19 22 c12 14 18 31 15 43 -6 24 -3 24 43 5
20 -8 40 -12 45 -9 5 3 12 -1 15 -10 3 -8 19 -18 35 -21 16 -4 31 -11 34 -16
4 -5 29 -9 57 -9 42 0 49 3 44 16 -4 12 -2 15 9 11 8 -4 17 -1 21 4 3 6 17 9
30 6 14 -2 27 -1 30 4 2 4 33 11 67 15 49 6 67 13 91 36 27 28 28 30 11 48
-16 18 -17 20 -2 20 19 0 21 8 7 30 -7 12 -12 12 -22 2 -16 -16 -43 -15 -58 2
-6 8 -18 12 -26 9 -8 -3 -22 -2 -31 2 -10 4 -30 9 -46 10 -15 1 -47 18 -71 36
-55 43 -38 48 66 20 105 -27 251 -21 368 16 47 15 111 27 143 28 39 0 61 6 67
15 8 13 13 12 39 -3 16 -9 36 -17 44 -17 14 0 34 -36 25 -46 -2 -2 -28 6 -57
17 -58 22 -81 17 -41 -10 13 -9 31 -24 39 -33 9 -10 20 -18 26 -18 5 -1 25
-14 44 -30 l34 -29 -12 -78 c-30 -204 -173 -353 -401 -417 -143 -41 -366 -12
-511 65 -80 43 -189 140 -216 191 -55 109 -65 139 -75 221 -15 120 4 198 70
285 30 40 47 42 36 5z m2730 -14 c-3 -6 0 -16 7 -21 12 -8 11 -9 -1 -5 -18 4
-27 37 -10 37 6 0 8 -5 4 -11z m-924 -39 c0 -32 -19 -40 -39 -16 -10 11 -7 17
11 30 29 21 28 21 28 -14z m1430 5 c19 -23 2 -35 -50 -35 -47 0 -69 17 -54 41
9 15 90 11 104 -6z m-1706 -17 c24 -34 3 -46 -84 -50 -91 -4 -99 11 -25 46 63
31 90 32 109 4z m-271 -83 c1 -5 -6 -11 -15 -13 -11 -2 -18 3 -18 13 0 17 30
18 33 0z m2441 -40 c3 -9 2 -23 -3 -33 -4 -9 -16 -34 -27 -56 -19 -39 -75 -83
-106 -83 -19 0 -20 2 -22 46 -1 22 3 28 17 26 9 -2 17 0 17 6 0 5 -5 9 -11 9
-12 0 110 98 122 99 4 1 10 -6 13 -14z m66 1 c0 -3 -4 -8 -10 -11 -5 -3 -10
-1 -10 4 0 6 5 11 10 11 6 0 10 -2 10 -4z m-4440 -136 c16 -23 29 -30 54 -30
19 0 39 -6 45 -14 10 -12 61 -151 61 -167 0 -10 -49 -21 -68 -15 -23 8 -37 32
-87 152 -44 104 -45 131 -5 74z m480 -30 c0 -11 -6 -20 -13 -20 -19 0 -27 10
-20 26 8 21 33 17 33 -6z m25 -65 c11 -7 36 -43 55 -80 64 -122 151 -203 305
-284 102 -54 105 -58 60 -67 -52 -9 -176 20 -246 58 -51 28 -58 36 -63 71 -4
21 -16 56 -28 77 -22 37 -22 37 -38 16 -9 -11 -19 -29 -23 -38 -9 -27 -27 -22
-27 7 0 16 -6 25 -15 25 -8 0 -15 9 -15 20 0 12 6 20 13 19 43 -5 44 -2 19 75
-18 55 -28 73 -39 69 -20 -8 -60 16 -66 38 -4 16 0 18 42 12 25 -3 55 -11 66
-18z m-1371 -1995 c-5 -5 -59 -28 -119 -50 -153 -56 -332 -126 -448 -173 -118
-49 -110 -56 48 -46 271 18 461 22 483 10 21 -11 31 -41 14 -41 -4 0 -13 -9
-19 -19 -11 -18 -10 -19 17 -11 16 5 35 12 41 16 7 4 9 3 6 -3 -4 -6 -35 -20
-69 -33 -35 -12 -107 -42 -162 -67 -115 -51 -475 -175 -488 -167 -13 8 -1 21
29 28 64 17 455 160 528 195 91 43 128 76 105 92 -17 12 -288 5 -420 -11 -100
-12 -224 -15 -239 -6 -23 15 6 37 92 71 51 19 96 35 100 35 4 0 27 8 50 19 23
10 89 35 147 55 110 40 251 92 285 106 27 12 31 12 19 0z m1199 -197 c-7 -2
-21 -2 -30 0 -10 3 -4 5 12 5 17 0 24 -2 18 -5z m-133 -17 c-118 -19 -410 -99
-565 -156 -87 -31 -189 -83 -186 -95 3 -14 63 -8 149 16 75 21 106 21 55 0
-49 -19 -225 -63 -231 -57 -3 3 1 6 8 6 9 0 7 5 -6 14 -35 27 -2 54 141 117
129 57 571 168 665 167 38 0 33 -2 -30 -12z m-415 -5 c-3 -5 -29 -17 -58 -27
-28 -9 -64 -23 -79 -31 -16 -7 -28 -9 -28 -4 0 5 -21 2 -47 -6 -90 -27 -173
-26 -173 3 0 21 61 44 136 51 55 5 64 4 64 -11 0 -22 22 -20 100 9 71 26 94
30 85 16z m-435 -50 c0 -6 -4 -13 -10 -16 -5 -3 -10 -2 -10 3 0 6 -10 8 -22 6
-21 -4 -22 -4 -3 5 26 13 45 13 45 2z m-80 -20 c-18 -10 -80 -22 -80 -16 0 5
59 23 80 24 13 0 13 -1 0 -8z m29 -29 c-13 -10 -41 -29 -61 -42 -21 -14 -38
-31 -38 -37 0 -15 34 -10 125 18 32 10 61 17 62 15 7 -6 -113 -45 -159 -51
-40 -6 -48 -5 -48 8 0 15 115 106 134 107 5 0 -2 -8 -15 -18z m920 -16 c-2 -2
-33 -6 -69 -9 -41 -3 -54 -2 -35 3 31 8 112 13 104 6z m491 -26 c0 -11 -4 -20
-10 -20 -5 0 -10 9 -10 20 0 11 5 20 10 20 6 0 10 -9 10 -20z m-697 -7 c-7 -2
-19 -2 -25 0 -7 3 -2 5 12 5 14 0 19 -2 13 -5z m-58 -13 c-27 -12 -43 -12 -25
0 8 5 22 9 30 9 10 0 8 -3 -5 -9z m-85 -20 c-14 -4 -34 -8 -45 -8 -16 0 -15 2
5 8 14 4 34 8 45 8 16 0 15 -2 -5 -8z m570 -15 c0 -11 -100 -54 -114 -49 -36
14 -12 35 49 45 56 9 65 10 65 4z m-416 -106 c-15 -23 -39 -48 -52 -57 -23
-15 -23 -16 -6 -29 21 -16 6 -17 -32 -3 l-28 11 30 18 c34 21 94 92 94 112 0
10 3 10 12 1 8 -8 4 -21 -18 -53z m-64 27 c0 -2 -7 -7 -16 -10 -8 -3 -12 -2
-9 4 6 10 25 14 25 6z m394 -116 l7 -35 -15 33 c-21 44 -30 98 -20 114 6 9 11
-2 15 -32 4 -25 9 -61 13 -80z m-964 88 c-39 -16 -153 -48 -157 -44 -5 4 147
54 167 54 8 1 4 -4 -10 -10z m801 -42 c-6 -14 -15 -26 -20 -26 -6 0 -2 13 7
29 20 36 26 34 13 -3z m-974 -12 c-3 -3 -12 -4 -19 -1 -8 3 -5 6 6 6 11 1 17
-2 13 -5z m-37 -8 c0 -3 -62 -25 -138 -50 -76 -25 -147 -48 -158 -52 -13 -5
-16 -4 -9 3 6 6 33 17 60 26 28 8 88 29 135 46 82 29 110 36 110 27z m1123
-63 c-18 -2 -48 -2 -65 0 -18 2 -4 4 32 4 36 0 50 -2 33 -4z m-1447 -50 c-6
-7 -56 -26 -111 -43 -16 -6 -49 -19 -72 -30 -24 -11 -48 -20 -55 -20 -20 0 37
28 132 65 83 32 120 42 106 28z m2141 -265 c-3 -8 -6 -5 -6 6 -1 11 2 17 5 13
3 -3 4 -12 1 -19z m115 -130 c-16 -16 -15 -28 2 -28 21 0 30 -20 17 -33 -15
-15 -29 0 -37 41 -5 27 -3 32 12 32 14 0 15 -3 6 -12z m42 -94 c9 -24 7 -54
-4 -54 -5 0 -10 5 -10 11 0 6 -6 9 -14 6 -11 -5 -12 0 -3 24 13 33 22 37 31
13z m62 -111 c-11 -11 -17 4 -9 23 7 18 8 18 11 1 2 -10 1 -21 -2 -24z"/>
<path d="M1435 6990 c3 -5 8 -10 11 -10 2 0 4 5 4 10 0 6 -5 10 -11 10 -5 0
-7 -4 -4 -10z"/>
<path d="M6091 6054 c0 -11 3 -14 6 -6 3 7 2 16 -1 19 -3 4 -6 -2 -5 -13z"/>
<path d="M3661 4218 c-17 -27 -9 -32 12 -8 9 11 13 21 9 24 -5 3 -14 -4 -21
-16z"/>
<path d="M4895 3637 c-11 -7 -22 -13 -24 -14 -5 -4 30 -43 38 -43 3 1 17 10
31 21 24 20 24 21 5 35 -22 16 -24 16 -50 1z"/>
<path d="M4766 3605 c4 -8 10 -15 15 -15 5 0 9 7 9 15 0 8 -7 15 -15 15 -9 0
-12 -6 -9 -15z"/>
<path d="M4710 3601 c0 -5 7 -14 15 -21 9 -7 13 -15 10 -18 -2 -3 3 -11 13
-18 25 -19 34 4 14 38 -15 26 -52 39 -52 19z"/>
<path d="M4520 3573 c0 -22 2 -25 10 -13 13 20 13 40 0 40 -5 0 -10 -12 -10
-27z"/>
<path d="M4623 3575 c0 -33 22 -33 23 0 1 14 -4 25 -11 25 -7 0 -12 -11 -12
-25z"/>
<path d="M4977 3535 c-4 -8 -2 -17 3 -20 6 -4 10 3 10 14 0 25 -6 27 -13 6z"/>
<path d="M4580 3507 c0 -19 20 -36 36 -30 8 3 24 -1 37 -10 22 -14 117 -39
117 -30 0 11 -30 33 -44 33 -9 0 -16 4 -16 8 0 7 -99 42 -120 42 -6 0 -10 -6
-10 -13z"/>
<path d="M3091 3716 c-9 -11 -8 -15 5 -20 23 -9 38 8 21 23 -11 9 -17 8 -26
-3z"/>
<path d="M2924 3506 c-3 -9 -12 -16 -20 -16 -8 0 -14 -4 -14 -10 0 -5 7 -10
15 -10 8 0 15 5 15 10 0 6 9 10 21 10 11 0 19 5 17 12 -7 19 -27 21 -34 4z"/>
<path d="M3000 3505 c0 -17 43 -60 48 -47 1 5 -2 21 -7 35 -11 28 -41 37 -41
12z"/>
<path d="M2120 3220 c0 -5 5 -10 10 -10 6 0 10 5 10 10 0 6 -4 10 -10 10 -5 0
-10 -4 -10 -10z"/>
<path d="M1101 1074 c-65 -20 -64 -28 5 -21 68 7 94 15 94 28 0 13 -47 9 -99
-7z"/>
<path d="M2151 2713 c0 -4 4 -17 9 -28 8 -19 9 -19 9 2 1 12 -3 25 -9 28 -5 3
-10 3 -9 -2z"/>
<path d="M2170 2616 c0 -14 5 -26 10 -26 6 0 10 9 10 19 0 11 -4 23 -10 26 -6
4 -10 -5 -10 -19z"/>
<path d="M4330 2612 c0 -7 1 -13 3 -15 1 -2 -6 -11 -16 -21 -9 -10 -15 -21
-12 -26 3 -5 1 -11 -5 -15 -5 -3 -10 2 -10 12 0 15 -4 14 -20 -7 -12 -16 -15
-27 -8 -31 6 -4 5 -9 -3 -15 -20 -12 -142 -5 -151 9 -5 7 -8 8 -8 2 0 -6 5
-16 12 -23 10 -10 5 -15 -20 -24 -18 -7 -32 -16 -32 -20 0 -4 -8 -8 -17 -8
-10 0 -31 -7 -48 -16 -16 -9 -43 -16 -59 -16 -19 1 -30 -5 -33 -18 -4 -17 -13
-18 -86 -14 -54 2 -93 10 -119 24 -46 24 -49 24 -42 5 7 -18 -10 -20 -24 -2
-6 7 -25 14 -43 15 -39 3 -48 10 -30 21 21 13 1 19 -74 22 -46 2 -76 8 -89 18
-21 19 -55 82 -57 108 -1 10 -5 -7 -10 -37 -15 -97 7 -163 75 -234 24 -25 61
-53 82 -62 96 -40 212 -97 241 -120 17 -13 37 -24 44 -24 7 0 21 -7 31 -17 14
-13 23 -14 41 -6 13 6 44 9 69 8 32 -2 51 1 59 11 6 8 18 14 25 14 8 0 14 6
14 14 0 23 99 114 171 157 63 38 130 105 159 158 15 30 16 159 1 174 -8 8 -11
8 -11 -1z"/>
<path d="M2206 2539 c2 -28 7 -56 12 -62 5 -7 13 -28 17 -47 7 -34 24 -70 36
-80 4 -3 12 -30 18 -60 7 -30 25 -78 41 -107 17 -29 30 -64 30 -77 0 -14 4
-27 9 -31 5 -3 8 -22 5 -43 -4 -35 -4 -36 7 -9 10 26 29 37 29 17 0 -5 -4 -10
-10 -10 -5 0 -10 -13 -10 -28 0 -19 13 -43 40 -73 22 -24 43 -53 46 -64 4 -11
12 -23 17 -27 8 -5 7 -15 -2 -32 -19 -35 -16 -77 8 -125 12 -22 21 -46 21 -52
0 -7 10 -26 23 -43 12 -17 29 -43 36 -58 8 -16 20 -28 27 -28 8 0 20 -12 28
-27 8 -16 25 -40 40 -55 14 -16 20 -28 13 -28 -7 -1 -5 -6 5 -13 9 -7 16 -22
15 -32 -1 -11 4 -20 13 -20 24 0 46 -49 33 -76 l-11 -24 -10 25 c-10 23 -11
23 -11 4 -1 -12 5 -24 13 -27 7 -3 16 -22 20 -41 4 -21 13 -36 21 -36 7 0 17
-10 20 -21 7 -21 93 -108 107 -109 4 0 13 -6 20 -13 7 -6 29 -23 48 -36 19
-13 52 -47 72 -75 81 -111 219 -238 294 -272 109 -48 297 -70 344 -39 16 11
60 70 60 81 0 15 42 64 51 59 14 -9 11 -19 -10 -42 -11 -11 -25 -39 -32 -62
-9 -30 -17 -40 -27 -36 -10 4 -12 0 -8 -11 4 -10 -1 -25 -10 -35 -10 -11 -13
-19 -8 -19 5 0 4 -4 -2 -8 -30 -21 -283 -496 -270 -509 18 -19 116 71 116 106
0 6 1 11 3 11 1 0 29 4 61 10 79 13 131 -9 174 -73 17 -24 39 -47 47 -51 26
-10 785 -7 785 3 0 5 10 11 21 14 15 4 20 11 17 25 -4 14 5 25 38 42 38 21 46
22 83 12 22 -7 44 -11 50 -10 5 2 17 -6 25 -17 36 -44 3 42 -75 200 -107 219
-144 271 -321 452 -18 18 -29 35 -26 38 7 8 38 -5 38 -16 0 -5 7 -9 15 -9 8 0
33 -16 55 -36 33 -30 43 -34 55 -24 8 7 15 18 15 25 0 14 40 53 40 39 0 -5 5
-1 11 9 5 9 18 17 28 17 10 0 26 9 36 20 10 11 26 20 35 20 42 0 220 147 220
183 0 19 -3 19 -116 3 -21 -3 -31 -3 -21 0 19 6 22 25 6 41 -13 13 26 73 48
73 7 0 13 8 13 18 0 9 13 23 30 30 16 7 54 38 85 67 30 30 69 62 85 72 17 9
30 20 30 23 0 3 27 26 60 50 33 25 60 51 60 58 0 7 8 16 17 19 52 20 201 197
244 290 29 64 64 231 54 262 -4 15 -108 131 -117 131 -2 0 -2 -89 0 -198 3
-171 1 -200 -12 -211 -9 -8 -16 -20 -16 -27 0 -8 -11 -14 -26 -14 -25 0 -26 2
-21 38 4 20 2 55 -3 77 -5 22 -5 42 -1 45 13 8 22 83 12 99 -9 15 7 82 23 93
6 4 8 10 4 13 -3 3 -36 -34 -74 -82 -38 -48 -74 -94 -81 -101 -7 -7 -29 -34
-50 -60 -40 -49 -65 -73 -72 -66 -2 2 8 19 22 38 14 18 37 58 50 87 13 30 31
60 40 68 10 7 17 20 17 28 0 8 13 33 29 56 17 23 37 68 46 100 9 31 21 57 27
57 5 0 8 6 5 14 -3 7 -1 18 5 24 8 8 8 15 -1 26 -8 10 -9 16 -1 21 16 10 12
52 -6 59 -20 8 -94 8 -94 0 0 -3 5 -14 10 -25 8 -14 7 -19 -2 -19 -17 0 -78
-70 -78 -90 0 -8 -13 -30 -30 -48 -16 -18 -30 -37 -30 -42 0 -5 -9 -14 -20
-20 -11 -6 -20 -17 -20 -25 0 -7 -22 -39 -49 -71 -27 -32 -59 -77 -71 -101
-12 -24 -25 -43 -29 -43 -4 0 -15 -18 -24 -40 -9 -23 -22 -40 -31 -40 -9 0
-16 -6 -16 -14 0 -7 -16 -34 -35 -59 -19 -25 -35 -52 -35 -60 0 -8 -9 -22 -19
-31 -10 -10 -22 -32 -25 -51 -4 -18 -12 -35 -19 -38 -8 -3 -12 -21 -11 -48 2
-60 2 -59 19 -59 9 0 12 -6 8 -17 -4 -11 -8 -12 -11 -5 -2 7 -10 12 -18 12
-17 0 -19 -27 -2 -32 11 -4 6 -12 -54 -80 -16 -18 -28 -35 -28 -40 0 -12 -74
-77 -144 -126 -118 -84 -237 -124 -431 -143 -141 -14 -329 -7 -377 14 -18 8
-59 22 -90 32 -58 17 -97 44 -46 32 19 -5 28 -2 32 10 5 12 9 14 18 5 7 -7 21
-12 33 -12 20 1 20 1 0 12 -11 6 -22 14 -25 18 -3 4 -18 14 -35 23 -16 8 -39
24 -50 34 -11 10 -29 25 -41 33 -24 17 -126 104 -161 137 -13 12 -23 20 -23
18 0 -2 -18 14 -40 36 -22 22 -40 44 -40 49 0 4 -16 17 -35 29 -25 14 -35 28
-35 44 0 13 -12 36 -26 51 l-27 26 47 0 46 0 0 35 c0 27 -5 38 -22 45 -18 8
-15 9 17 5 25 -3 50 0 67 9 19 10 28 11 31 3 2 -6 20 -12 40 -13 25 -1 34 2
31 11 -3 7 -1 16 5 20 28 16 4 24 -71 22 -87 -1 -149 14 -180 45 -9 9 -33 20
-53 24 -20 3 -39 13 -42 20 -3 8 -12 14 -19 14 -8 0 -17 7 -20 15 -4 8 -14 15
-24 15 -9 0 -29 11 -44 25 -15 14 -36 25 -46 25 -11 0 -24 10 -31 21 -6 12
-14 17 -18 12 -15 -22 -39 -21 -50 3 -6 13 -15 24 -20 24 -4 0 -12 15 -16 33
-4 17 -9 35 -10 40 -1 4 -3 12 -4 18 0 6 -7 9 -15 6 -9 -4 -32 13 -58 39 -24
25 -57 60 -74 78 -18 18 -39 47 -48 65 -10 17 -23 34 -31 37 -8 3 -17 14 -20
25 -4 10 -12 19 -20 19 -8 0 -17 9 -20 20 -7 21 -25 28 -25 10 0 -5 -4 -10
-10 -10 -5 0 -10 9 -10 20 0 11 -5 20 -11 20 -7 0 -18 8 -25 18 -13 16 -13 16
-14 0 0 -21 -30 -24 -30 -4 0 8 4 26 10 40 9 25 8 26 -24 26 -27 0 -35 5 -39
23 -2 12 -8 30 -12 40 -5 12 -3 17 8 17 9 0 18 -8 20 -17 4 -17 5 -17 6 0 0
10 -6 20 -14 23 -8 4 -12 10 -9 15 3 5 1 9 -4 9 -5 0 -14 11 -20 25 -18 39
-28 29 -26 -26z m871 -941 c-3 -7 -5 -2 -5 12 0 14 2 19 5 13 2 -7 2 -19 0
-25z m-277 -379 c0 -20 -15 -26 -25 -9 -9 15 3 43 15 35 5 -3 10 -15 10 -26z
m38 0 c-2 -6 -8 -10 -13 -10 -5 0 -11 4 -13 10 -2 6 4 11 13 11 9 0 15 -5 13
-11z m162 -80 c0 -14 -26 -11 -39 5 -9 11 -6 12 14 8 14 -2 25 -8 25 -13z
m115 -44 c11 -11 58 -41 103 -66 45 -24 82 -48 82 -53 0 -4 -8 -5 -17 -1 -10
3 -30 9 -45 12 -16 3 -28 9 -28 14 0 5 -7 9 -16 9 -8 0 -22 7 -30 15 -9 8 -24
15 -33 15 -10 0 -24 7 -31 15 -7 8 -16 15 -21 15 -5 0 -18 9 -28 19 -14 14
-16 22 -8 30 14 14 47 4 72 -24z m415 -55 c0 -5 -2 -10 -4 -10 -3 0 -8 5 -11
10 -3 6 -1 10 4 10 6 0 11 -4 11 -10z m653 -237 c-7 -2 -21 -2 -30 0 -10 3 -4
5 12 5 17 0 24 -2 18 -5z m87 -334 c30 0 80 -5 110 -13 49 -12 55 -16 52 -37
-3 -30 -53 -136 -67 -142 -15 -7 -239 147 -243 166 -4 17 23 25 30 8 2 -4 12
-5 23 0 18 7 18 8 2 8 -10 1 -15 6 -11 12 3 6 16 8 28 4 11 -4 46 -7 76 -6z"/>
<path d="M4075 2480 c3 -5 8 -10 11 -10 2 0 4 5 4 10 0 6 -5 10 -11 10 -5 0
-7 -4 -4 -10z"/>
<path d="M4782 2113 c-6 -2 -10 -9 -7 -13 7 -11 35 -2 35 11 0 10 -8 10 -28 2z"/>
<path d="M4677 2103 c-4 -3 -7 -14 -7 -24 0 -18 -34 -29 -100 -32 -21 -1 -34
-7 -33 -14 2 -7 -14 -14 -40 -17 -198 -22 -331 -47 -432 -82 -91 -31 -184 -33
-342 -10 -48 8 -157 14 -242 15 -105 1 -164 6 -187 16 -37 15 -178 56 -209 60
-11 1 -20 3 -20 5 0 1 -13 4 -30 6 -16 3 -35 9 -41 15 -13 11 -39 -15 -47 -48
-8 -35 51 -74 119 -78 30 -2 69 -7 86 -10 40 -9 141 -54 149 -67 3 -5 26 -12
50 -15 24 -3 49 -10 55 -14 6 -5 32 -5 59 0 27 5 55 7 62 4 8 -3 22 2 32 11
10 9 20 14 23 11 3 -3 32 -8 64 -11 33 -3 75 -9 94 -14 89 -24 295 -3 429 45
47 16 141 21 141 6 0 -5 18 -11 40 -15 44 -7 120 25 120 50 0 8 9 14 21 14 11
0 35 11 52 24 18 13 66 42 107 64 72 37 75 40 76 75 1 32 -2 37 -21 37 -12 0
-25 -3 -28 -7z"/>
<path d="M4635 2090 c-3 -5 -1 -10 4 -10 6 0 11 5 11 10 0 6 -2 10 -4 10 -3 0
-8 -4 -11 -10z"/>
<path d="M4468 2033 c6 -2 18 -2 25 0 6 3 1 5 -13 5 -14 0 -19 -2 -12 -5z"/>
<path d="M4462 1855 c-13 -7 -34 -22 -47 -33 -13 -11 -26 -18 -28 -15 -3 3
-14 0 -24 -6 -10 -6 -12 -11 -5 -11 19 0 14 -17 -7 -23 -14 -3 -18 -1 -14 9 3
9 -2 14 -16 14 -12 0 -21 -4 -21 -10 0 -5 -9 -10 -20 -10 -11 0 -20 -4 -20
-10 0 -5 7 -10 16 -10 8 0 12 -4 9 -10 -3 -5 -16 -10 -29 -10 -12 0 -26 -4
-31 -9 -17 -15 -175 -37 -285 -40 -127 -2 -404 16 -408 27 -4 12 -74 1 -100
-16 -17 -11 -20 -18 -11 -28 6 -7 8 -18 4 -24 -3 -5 1 -10 9 -10 9 0 16 -4 16
-8 0 -44 333 -87 490 -63 41 7 111 16 155 21 98 12 178 46 172 72 -4 12 0 18
13 18 30 0 90 29 90 44 0 8 30 42 66 76 63 58 76 91 26 65z"/>
<path d="M7330 1714 c0 -8 5 -12 10 -9 6 4 8 11 5 16 -9 14 -15 11 -15 -7z"/>
<path d="M5385 1710 c-3 -5 -1 -10 4 -10 6 0 11 5 11 10 0 6 -2 10 -4 10 -3 0
-8 -4 -11 -10z"/>
<path d="M3278 1623 c7 -3 16 -2 19 1 4 3 -2 6 -13 5 -11 0 -14 -3 -6 -6z"/>
<path d="M2721 1294 c0 -11 3 -14 6 -6 3 7 2 16 -1 19 -3 4 -6 -2 -5 -13z"/>
<path d="M2590 461 c0 -12 5 -21 10 -21 6 0 10 6 10 14 0 8 -4 18 -10 21 -5 3
-10 -3 -10 -14z"/>
</g>
</svg>
